<svg width="584" height="445" viewBox="0 0 584 445" fill="none" xmlns="http://www.w3.org/2000/svg">
<path d="M40.3088 2.7297C21.2459 8.73515 7.27878 23.4872 2.44469 42.2884C0.619268 49.3403 0.488457 66.1794 0.75008 189.166L1.14252 327.952L4.66849 340.486C19.2897 394.018 62.1127 433.576 115.252 442.846C131.574 445.718 273.624 445.718 294.25 442.846C336.158 436.971 374.152 417.385 396.087 390.23L400.66 384.748L409.799 386.704C423.248 389.576 445.831 390.622 459.15 388.791C518.295 380.823 567.254 339.439 580.443 286.038C584.361 270.109 584.361 246.218 580.312 231.335C567.379 182.768 526.382 148.436 471.809 140.469C465.019 139.553 454.709 139.161 444.523 139.684C391.384 142.169 343.994 171.804 321.929 216.322C318.534 223.112 315.662 228.987 315.531 229.117C315.4 229.379 310.834 228.725 305.221 227.554C261.089 218.415 212.523 224.943 174.272 245.178C167.612 248.834 161.999 251.575 161.738 251.314C161.345 250.791 112.779 143.602 111.863 141.123C111.34 139.684 112.909 139.291 120.086 139.291C132.62 139.291 144.893 137.073 152.985 133.417C161.47 129.498 172.571 119.057 177.138 110.959C182.882 100.125 193.59 71.9232 194.893 63.6999C199.073 37.7159 182.62 11.3455 157.552 3.50863C149.59 1.02916 145.541 0.898332 97.2357 1.02914C59.3716 1.03509 44.0964 1.5524 40.3088 2.7297ZM140.19 70.0978V84.4574H111.464H82.7394V70.0978V55.7382H111.464H140.19V70.0978Z" fill="#70DA40"/>
</svg>
