<svg id="Layer_1" xmlns="http://www.w3.org/2000/svg" viewBox="-356 531.5 128 128"><style>.st0{fill:#FFFFFF;} .st1{fill:#B9B9B8;} .st2{fill:#E3E3E2;} .st3{fill:#00C3DC;} .st4{fill:#F8BD30;}</style><path class="st0" d="M-282.2 653.6c-1.4 0-2.7-.3-3.8-.9l-62.2-36c-1.4-.8-2.1-2-1.9-3.3v-3.1c-.2-1.3.6-2.5 1.9-3.3l35.8-20.8c.8-.5 1.8-.8 2.9-.9-.6-1.3-.5-2.6-.5-3 0-1.6.1-36.9 0-39.8s.6-4 1.3-4.5c.2-.2.4-.3.7-.4l1.8-1.1c.5-.3 1-.4 1.5-.4.7 0 1.4.2 2.1.6l62.2 35.9c2.1 1.2 3.8 4.1 3.8 6.5l-.1 41.4c0 1.3-.5 2.3-1.3 3l-.1.1-2 1.2c-.2.1-.3.2-.5.3 0 .2 0 .4-.1.6v2.4c.3 1.4-.4 2.8-1.9 3.6l-35.8 20.8c-1.1.8-2.4 1.1-3.8 1.1z"/><path class="st1" d="M-304.7 537.5c.4 0 .9.1 1.4.4l62.2 35.9c1.7 1 3.1 3.4 3.1 5.3l-.1 41.4c0 .9-.3 1.5-.8 1.9l-2.1 1.3c-.3.2-.6.3-1 .3-.2 0-.4 0-.7-.1.5.5.6 1.1.4 1.7v2.8c.3.8-.1 1.6-1.2 2.3l-35.7 20.8c-.8.5-2 .7-3.1.7s-2.2-.2-3.1-.7l-62.1-36c-1-.6-1.4-1.3-1.3-2v-3.1c-.2-.8.2-1.6 1.2-2.2l35.8-20.8c.8-.5 2-.7 3.1-.7s2.2.2 3.1.7c-.5-.4-1-.8-1.6-1.3-1.6-1.3-1.4-3.7-1.4-3.7s.1-36.9 0-39.9.7-3.3.7-3.3c.1-.1.3-.3.5-.3l1.9-1.2c.2-.1.5-.2.8-.2m0-2.7c-.8 0-1.5.2-2.2.6h-.1l-1.7 1.1c-.3.1-.5.3-.8.5-1.1.7-2.1 2.2-1.9 5.7.1 2.3 0 26.9 0 39.7 0 .3 0 1.1.1 2-.7.2-1.3.4-1.9.8l-35.7 20.6c-1.8 1-2.8 2.8-2.6 4.5v2.9c-.2 1.8.8 3.6 2.6 4.6l62.2 35.9c1.2.7 2.8 1.1 4.5 1.1 1.6 0 3.2-.4 4.5-1.1l35.8-20.8c2-1.2 2.9-3.1 2.6-5v-2l2-1.2.2-.2c1.2-.9 1.8-2.3 1.9-4.1l.1-41.4c0-2.9-1.9-6.2-4.5-7.7l-62.3-35.7c-.9-.6-1.9-.8-2.8-.8z"/><path class="st3" d="M-264.9 585.8c0-.5 0-.5-.5-.8-3.1-1.7-6.2-3.5-9.3-5.3-.5-.3-.5-.3-.5.2v15c0 .5 0 .5.5.8 3.1 1.7 6.2 3.5 9.3 5.3.5.3.5.3.5-.2v-15z"/><path class="st4" d="M-252.3 602.6v-9.8c0-.5 0-.5-.5-.8-2.9-1.7-5.9-3.3-8.8-5-.5-.2-.5-.2-.5.2v15c0 .5 0 .5.5.8 2.9 1.7 5.8 3.2 8.7 4.9.5.3.5.3.5-.2.1-1.6.1-3.3.1-5.1z"/><path class="st0 down" d="M-269.8 595.8h.2l3-2.3c.3-.2.4-.6.2-.9-.2-.3-.6-.3-.9-.1l-1.9 1.4v-16.8c0-.4-.3-.6-.7-.6-.4 0-.6.3-.6.7v15.6l-1.6-2.7c-.2-.3-.6-.4-.9-.2-.3.2-.4.6-.2.9l2.8 4.8.1.1.1.1h.4z"><animateMotion path="M0,-10 L0,25" begin="0s" dur=".7s" repeatCount="indefinite"/></path><path class="st0 up" d="M-257.3 591.9h-.2l-3 2.3c-.3.2-.4.6-.2.9.2.3.6.3.9.1l1.9-1.4v16.8c0 .4.3.6.7.6.4 0 .6-.3.6-.7v-15.6l1.6 2.7c.2.3.6.4.9.2.3-.2.4-.6.2-.9l-2.8-4.8-.1-.1-.1-.1h-.4z"><animateMotion path="M0,10 L0,-25" begin="0s" dur=".7s" repeatCount="indefinite"/></path><path class="st1" d="M-332.9 607.7l8.5 4.9 3.5-2-8.5-4.9zm66.9 9.7l-3.6-2.1-3.4 2 3.6 2.1zm-1.6 3.1l3.6 2.1 3.5-2-3.6-2.1zm-38-9.5l3.6 2.1 3.4-2-3.6-2.1zm1.9-2.9l-3.6-2.1-3.5 2 3.6 2.1zm22.7 6.9l-3.6-2.1-3.4 2 3.6 2.1zm-1.8 2.9l3.6 2.1 3.4-2-3.6-2.1zm-10.4-6l3.6 2.1 3.4-2-3.6-2.1zm1.8-2.9l-3.6-2.1-3.5 2 3.7 2.1zm4.7 8.9l-3.5 2 3.6 2.1 3.5-2zm-1.6-.9l-3.6-2.1-3.4 2 3.6 2.1zm-5.1-3l-3.6-2-3.5 2 3.6 2zm-6.7-6.1l3.5-2-3.6-2.1-3.5 2zm3.4-4.3l3.5-2-3.6-2.1-3.5 2zm1.9 1.1l3.6 2.1 3.4-2-3.6-2.1zm5.4 3.2l3.6 2 3.5-2-3.6-2zm5.5 3.1l3.6 2.1 3.4-2-3.6-2.1zm5.4 3.2l3.6 2.1 3.5-2-3.6-2.1zm4.3 4.8l-3.4 2 3.6 2 3.5-1.9zm-2.2 4.9l-3.5 2 3.6 2.1 3.5-2zm-1.6-.9l-3.6-2.1-3.4 2 3.6 2.1zm-6.8 2.3l-3.4 2 3.6 2.1 3.5-2zm-1.4-.8l-3.6-2.1-3.5 2 3.6 2.1zm-5.2-3l-3.6-2.1-3.4 2 3.6 2.1zm-5.1-3l-3.6-2.1-3.4 2 3.6 2.1zm-5.3-3l-3.6-2.1-3.5 2 3.7 2zm-5.1-3l-3.6-2.1-3.5 2 3.7 2.1zm-5.1-3l-3.7-2.1-3.4 2 3.6 2.1zm-.3-2.4l3.4-2-3.6-2.1-3.4 2zm7-2.2l3.5-2-3.6-2.1-3.5 2zm3.2-4.4l3.4-2-3.6-2.1-3.4 2zm45.5 22.4l-3.5 2 3.6 2.1 3.5-2zm-12.1-.8l-3.5 2 10.3 6 3.5-2zm-2.6 4.8l-3.4 2 7.4 4.3 3.5-2zm-8.2 1.5l-3.5 2 10.3 5.9 3.5-1.9zm-3.9 4l-3.5 2 8.8 5.1 3.4-2zm-1.5-.9l-6.2-3.6-3.5 2 6.2 3.6zm-7.8-4.5l-19.2-11.1-3.4 2 19.1 11.1zm-22.6-6.6l-5.5 3.2 15.5 8.9 5.5-3.2zm-1.5-3.3l3.5-2-6.2-3.6-3.5 2zm-10.6-12.5l6.7 3.9 3.5-2-2.4-1.4 5.1-2.9-4.4-2.6zm14.3-8.3l-3.5 2 6.1 3.6 3.5-2zm5.5 1l3.5-2-3.6-2.1-3.5 2z"/><path class="st1" d="M-347.3 608.2l.1.3 35.8-20.8c.8-.5 1.9-.7 2.9-.7 1.1 0 2.1.2 2.9.7l62.2 35.9c.8.5 1.1 1 1.1 1.6 0 .5-.3 1.1-1.1 1.5l-35.7 20.8c-.8.5-1.9.7-2.9.7-1.1 0-2.1-.2-2.9-.7l-62.3-35.9c-.8-.5-1.1-1-1.1-1.6 0-.5.3-1.1 1.1-1.5l-.1-.3-.1-.2c-.9.5-1.4 1.2-1.4 2s.5 1.5 1.4 2l62.2 35.9c.9.5 2.1.8 3.2.8 1.2 0 2.3-.3 3.2-.8l35.8-20.8c.9-.5 1.4-1.2 1.4-2s-.5-1.5-1.4-2l-62.3-35.9c-.9-.5-2.1-.8-3.2-.8s-2.3.2-3.2.8l-35.8 20.8.2.2z"/><path class="st1" d="M-308.5 541c0-.6.2-1.1.4-1.4.3-.3.6-.5 1-.5s.8.1 1.2.4l62.2 35.9c.8.5 1.5 1.3 2.1 2.2.5.9.9 2 .9 2.9l-.1 41.4c0 .6-.2 1.1-.4 1.4-.3.3-.6.5-1 .5s-.8-.1-1.2-.4l-.3.5c.5.3 1 .5 1.5.5.6 0 1.1-.2 1.5-.7.4-.4.5-1 .5-1.8l.1-41.4c0-1-.4-2.2-.9-3.1-.6-1-1.4-1.9-2.3-2.4l-62.2-36c-.5-.3-1-.5-1.5-.5-.6 0-1.1.2-1.5.7-.4.4-.5 1-.5 1.8h.5z"/><path class="st1" d="M-306.3 581.7l.3-37.9c0-.8.4-1.2.9-1.2.2 0 .5.1.8.2l59.7 34.5c1 .6 1.8 2 1.8 3.1h.1-.1l-.2 38c0 .8-.4 1.2-.9 1.2-.2 0-.5-.1-.8-.2l-59.7-34.6c-1-.5-1.8-2-1.9-3.1h-.1c0 1.2.8 2.7 1.9 3.3l59.7 34.5c.3.2.6.3.9.3.3 0 .6-.1.8-.4.2-.3.3-.6.3-1l.1-37.9c0-1.2-.8-2.7-1.9-3.3l-59.7-34.5c-.3-.2-.6-.3-.9-.3-.3 0-.6.1-.8.4-.2.3-.3.6-.3 1l-.1 37.9h.1-.1.1z"/><path class="st2" d="M-297.6 565.2v16.5c0 .8-.1.7.8 1.2 6.2 3.5 12.5 7 18.7 10.6.1.1.3.2.5.3.1.1.2 0 .3-.1v-29.2c0-.6 0-.5-.6-.9l-.1-.1c-6.3-3.5-12.5-7.1-18.8-10.6-.7-.3-.6-.4-.6.3-.2 4-.2 8-.2 12zm33.9 18.4c3.6 2.1 7.2 4.1 10.8 6.1.7.4.6.5.6-.3v-11s-.1-.3-.3-.5c-.1-.1-.3-.2-.5-.3-2.9-1.7-5.8-3.2-8.7-4.9-4.3-2.4-8.6-4.8-12.9-7.3-.7-.4-.6-.4-.6.3v10.9c0 .4.1.4.5.7.2.1.3.3.5.3 3.6 2.1 7.1 4 10.6 6z"/></svg>