<svg width="451" height="360" viewBox="0 0 451 360" fill="none" xmlns="http://www.w3.org/2000/svg">
<path d="M319.2 171C319.2 262.2 253.08 336.3 171 336.3C88.92 336.3 22.7998 262.2 22.7998 171C22.7998 79.8002 88.92 5.69977 171 5.69977C253.08 5.69977 319.2 79.8002 319.2 171Z" fill="#FFDD09"/>
<path d="M7.98021 197.79C8.54999 197.79 8.54999 197.22 9.12044 197.22C16.5302 189.811 22.8004 188.67 29.0707 177.27C35.3409 166.44 27.9304 166.44 29.0707 147.63C30.2109 129.39 27.9304 137.94 29.0707 117.991C29.6404 106.021 27.3607 103.17 22.2307 99.1807L5.69977 148.2L7.98021 197.79Z" fill="#54C9FD"/>
<path d="M22.7998 171C22.7998 79.8002 88.92 5.69977 171 5.69977C79.8002 5.69977 5.69977 79.8002 5.69977 171C5.69977 262.2 79.8002 336.3 171 336.3C88.92 336.3 22.7998 262.2 22.7998 171Z" fill="white"/>
<path d="M171 5.69977C253.08 5.69977 319.2 79.7995 319.2 171C319.2 262.2 253.08 336.3 171 336.3C262.2 336.3 336.3 262.2 336.3 171C336.3 79.7995 262.2 5.69977 171 5.69977Z" fill="#FD9808"/>
<path d="M171 5.69977C148.2 5.69977 125.97 10.26 106.02 18.81C104.88 23.94 100.32 33.6302 100.89 36.4798C101.46 36.4798 143.07 -5.70046 137.94 22.7998C134.52 41.04 100.89 41.04 102.03 59.85C137.37 73.53 149.91 33.6302 180.12 33.6302C190.38 33.6302 216.03 17.6704 221.16 21.0904C241.111 34.2007 216.6 80.9404 201.21 65.5504C186.39 50.7302 165.87 70.6804 166.44 93.4802C173.85 94.05 177.27 71.82 184.11 79.2304C191.52 87.2107 188.67 103.74 178.41 107.16C168.15 111.15 126.541 79.2304 136.801 103.17C148.201 129.961 103.17 150.481 148.201 139.65C169.291 134.52 162.451 150.48 172.141 158.46C184.111 167.58 178.981 145.92 187.531 149.34C200.071 154.47 185.251 167.01 205.201 157.89C228.571 147.061 219.45 163.59 226.861 174.421C240.541 193.8 273.601 213.181 290.701 186.391C294.69 180.12 292.411 130.53 317.491 163.591C333.45 184.68 328.32 138.51 330.03 126.54C310.65 56.9998 246.81 5.69977 171 5.69977Z" fill="#54C9FD"/>
<path d="M85.5 205.2L67.8302 213.75L91.2004 205.77L85.5 205.2Z" fill="#54C9FD"/>
<path d="M65.5498 214.32L66.69 213.75L67.8302 213.18L65.5498 214.32Z" fill="#54C9FD"/>
<path d="M193.23 245.67L163.02 222.87L142.5 223.44L121.41 216.6L104.88 205.2L67.2598 213.75L51.3 221.73L34.2 245.1L40.4702 272.46C42.1802 274.74 43.8902 277.021 45.6002 279.3L77.5205 294.121L99.1807 296.971L112.291 323.191L112.861 326.041C130.53 332.311 150.481 336.301 171.001 336.301C185.25 336.301 198.93 334.591 212.041 331.171L216.601 305.521L236.551 289.561L244.531 263.911H203.491L193.23 245.67Z" fill="#54C9FD"/>
<path d="M102.6 131.1C102.6 143.64 92.34 153.9 79.8002 153.9C67.2605 153.9 57.0005 143.64 57.0005 131.1C57.0005 118.56 67.2605 108.3 79.8002 108.3C92.34 108.3 102.6 118.56 102.6 131.1Z" fill="#DB4D6C"/>
<path d="M279.3 108.3C279.3 120.84 269.04 131.1 256.5 131.1C243.96 131.1 233.7 120.84 233.7 108.3C233.7 95.76 243.96 85.5 256.5 85.5C269.04 85.5 279.3 95.76 279.3 108.3Z" fill="#1CD759"/>
<path d="M176.7 279.3C176.7 291.84 166.44 302.1 153.9 302.1C141.36 302.1 131.1 291.84 131.1 279.3C131.1 266.76 141.36 256.5 153.9 256.5C166.44 256.5 176.7 266.76 176.7 279.3Z" fill="#FD9808"/>
<path d="M171 342C76.95 342 0 265.05 0 171C0 76.95 76.95 0 171 0C265.05 0 342 76.95 342 171C342 265.05 265.05 342 171 342ZM171 11.4002C83.2202 11.4002 11.4002 83.2202 11.4002 171C11.4002 258.78 83.2202 330.6 171 330.6C258.78 330.6 330.6 258.78 330.6 171C330.6 83.2202 258.78 11.4002 171 11.4002Z" fill="black"/>
<path d="M268.47 205.2C250.23 205.2 231.99 190.38 222.87 176.7C220.02 172.14 218.88 167.58 218.31 163.59C218.31 161.88 217.74 160.17 217.169 159.029C216.6 159.029 213.749 159.029 208.05 161.88C200.069 165.3 196.08 167.01 192.09 164.73C188.67 163.02 188.67 159.03 188.1 157.32C188.1 156.18 188.1 155.04 187.53 155.04C187.53 155.61 187.53 155.61 186.96 156.18C185.82 159.6 184.681 164.161 179.551 165.871C174.421 167.581 169.86 164.161 168.721 163.02C163.591 159.031 161.881 154.47 160.741 150.481C158.461 144.781 158.461 143.641 149.34 145.351C133.95 149.34 126.541 149.911 123.121 144.781C119.701 140.221 122.551 135.661 125.971 130.531C129.961 123.691 135.091 115.141 131.101 105.451C129.961 102.601 127.111 95.7607 131.671 90.6307C136.801 85.5007 145.92 89.4904 158.461 95.1909C159.601 95.7607 160.171 95.7607 161.311 96.3311C160.741 95.1909 160.171 94.6211 160.171 93.4809C159.601 77.5211 168.151 62.1311 180.691 56.4307C189.241 52.4409 197.791 54.7207 204.631 60.9909C206.341 62.7009 207.481 62.7009 208.621 62.1311C213.751 60.4211 220.591 50.7309 221.731 39.9011C222.301 35.9113 222.301 29.6411 217.741 25.6513C214.891 26.2211 207.481 29.0713 202.921 31.3511C193.801 35.3409 185.821 38.7609 179.551 38.7609C168.15 38.7609 160.171 45.0311 150.481 52.4409C137.37 62.7009 122.551 74.1011 99.1807 64.9807C96.9009 64.4109 95.7607 62.1304 95.7607 59.8507C94.6204 46.7404 106.59 40.4709 115.711 35.3409C123.121 31.3511 130.531 27.9311 131.671 21.6609C131.671 20.5207 132.24 19.3811 132.24 18.8107C129.39 19.9509 122.55 23.9407 107.16 38.1904C103.74 41.0407 102.6 42.7507 99.7504 42.1802C96.9002 41.6104 95.1902 39.33 95.1902 37.0502C95.1902 34.7704 96.3304 31.3504 98.0404 26.7902C99.1807 23.94 100.32 20.52 100.891 18.2402C101.46 16.5302 102.601 14.8202 104.311 13.68C125.4 4.56022 147.63 0 171 0C247.38 0 315.21 51.3 335.73 125.4C335.73 125.97 335.73 127.11 335.73 127.68C335.16 130.53 335.16 136.23 335.16 141.36C335.16 160.17 334.59 171.57 326.61 174.419C319.77 176.699 314.64 169.859 312.93 167.01C306.09 157.89 303.24 157.89 303.24 157.89C300.96 159.6 299.25 171.57 298.68 176.7C297.539 183.54 296.97 186.96 295.829 189.24C288.99 199.5 279.3 205.2 268.47 205.2ZM217.17 147.63C219.45 147.63 221.16 148.2 222.87 148.77C228 151.62 228.57 156.75 229.71 161.31C230.28 164.16 230.85 167.58 232.56 169.86C239.97 181.26 255.36 193.23 269.04 193.23C276.45 193.23 281.58 189.81 286.14 182.97C286.71 181.83 287.28 177.84 287.85 174.99C289.56 163.02 291.27 149.34 300.96 147.06C309.51 144.78 317.49 153.33 322.62 160.17C323.19 160.74 323.19 160.74 323.76 161.31C324.901 156.18 324.901 147.061 324.901 141.36C324.901 135.66 324.901 130.53 325.47 127.11C311.79 79.2304 276.45 41.0407 231.99 23.3702C233.7 27.9304 234.84 34.2 233.7 41.6104C231.99 54.1502 224.01 69.5402 212.61 72.9602C206.911 74.6702 201.21 73.53 196.651 68.9704C193.231 65.5504 189.241 64.9807 185.25 66.6907C182.971 67.8309 180.69 69.5409 178.41 71.8207C178.98 71.8207 179.551 71.8207 179.551 71.8207C181.83 71.8207 184.681 71.8207 187.531 75.2407C192.661 80.9404 194.371 88.9207 192.661 96.9009C190.951 104.311 186.391 110.011 179.551 112.291C173.851 114.571 165.871 111.151 153.331 105.451C149.911 103.741 144.781 101.461 141.361 100.321C141.361 100.321 141.361 100.321 141.361 100.891C147.631 115.711 139.651 128.82 135.091 136.231C137.37 135.661 140.79 135.091 145.92 133.951C163.02 129.961 167.581 137.941 170.43 145.921C171.57 148.771 172.71 151.621 174.99 153.331C174.99 152.761 174.99 152.761 174.99 152.191C176.131 148.771 177.27 144.781 181.261 143.071C182.971 142.501 185.25 141.931 188.67 143.071C194.941 145.351 197.22 149.911 197.79 153.331C198.93 152.761 200.07 152.191 201.78 151.621C209.19 149.34 213.75 147.63 217.17 147.63ZM167.58 98.6102C171.57 100.32 175.56 101.46 176.7 101.46C180.69 100.32 181.83 95.7607 182.4 94.0507C182.969 90.6307 182.969 87.2107 181.259 84.3604C180.69 85.5007 180.119 86.0704 179.549 87.2107C177.27 91.7702 173.85 98.0398 167.58 98.6102ZM108.3 55.8602C123.12 59.85 133.38 52.4402 144.21 43.8902C153.9 36.4804 164.73 27.9304 179.55 27.9304C182.97 27.9304 191.52 24.5104 198.36 21.6602C202.92 19.9502 206.91 18.2402 209.76 17.1C188.1 11.4002 164.73 10.8298 142.5 14.2498C143.07 17.1 143.641 19.9496 142.5 24.5098C140.221 35.91 129.961 41.6098 120.84 46.17C114.57 49.59 110.01 52.4402 108.3 55.8602Z" fill="black"/>
<path d="M67.8302 219.45C65.5504 219.45 63.27 218.31 62.7002 216.03C61.56 213.18 62.7002 210.33 65.5504 208.62L83.2202 200.07C84.3604 199.5 85.5 199.5 86.6402 199.5L92.34 200.07C95.1902 200.64 96.9002 202.35 97.47 205.2C98.0398 208.05 96.3298 210.33 93.4802 210.9L70.11 218.88C68.9698 219.45 68.4 219.45 67.8302 219.45Z" fill="black"/>
<path d="M65.5498 220.02C63.27 220.02 60.9895 218.31 59.85 216.03C59.2802 213.18 60.4198 210.331 63.27 209.19L65.5498 208.621C68.4 207.48 71.2495 209.19 72.3898 212.041C73.53 214.891 72.3898 217.74 69.5395 219.45L68.3993 220.02C67.8295 220.02 67.8295 220.59 67.2591 220.59L66.1189 221.16C66.69 220.02 66.1202 220.02 65.5498 220.02Z" fill="black"/>
<path d="M171 342C150.48 342 129.96 338.01 110.58 331.17C108.87 330.6 107.16 328.89 107.16 326.61V324.9L96.3304 302.1L77.5204 299.82C76.9507 299.82 76.3802 299.82 75.8104 299.251L43.8902 284.43C43.3204 283.861 42.75 283.861 42.1802 282.72C40.4702 280.441 38.1904 278.16 36.4804 275.88C35.9107 275.311 35.3402 274.74 35.3402 273.601L28.5002 246.241C27.9304 244.531 28.5002 242.821 29.6404 241.68L46.7404 218.31C47.3102 217.74 47.8807 217.17 49.0202 216.6L64.4102 209.19C64.98 209.19 64.98 208.621 65.5504 208.621L103.17 200.071C104.88 199.501 106.59 200.071 107.731 201.211L123.69 212.041L143.07 218.311L162.45 217.741C163.59 217.741 165.3 218.311 165.87 218.881L196.08 241.681C196.65 242.251 197.22 242.821 197.79 243.391L206.34 258.211H243.96C245.67 258.211 247.38 259.352 248.52 260.491C249.661 262.201 249.661 263.911 249.09 265.621L241.68 290.7C241.11 291.84 240.54 292.41 239.97 293.55L221.73 308.37L217.74 332.31C217.17 334.59 215.46 336.3 213.75 336.871C199.5 340.29 185.25 342 171 342ZM117.42 321.48C145.92 331.74 177.27 333.45 206.91 326.61L210.9 304.38C210.9 303.24 212.04 301.53 213.18 300.96L231.42 286.14L236.55 269.61H202.92C200.64 269.61 198.93 268.469 197.79 266.759L188.67 249.659L160.74 228.57L142.5 229.139C141.93 229.139 141.36 229.139 140.79 229.139L119.7 222.3C119.13 222.3 118.56 221.73 117.99 221.73L103.74 211.47L68.9704 219.45L55.2904 226.29L40.4702 246.24L45.6002 269.61C46.7404 271.32 47.88 272.46 49.0202 274.17L79.2304 288.42L99.7504 291.27C101.46 291.27 103.17 292.98 104.311 294.69L117.421 320.91C117.42 320.91 117.42 320.91 117.42 321.48Z" fill="black"/>
<path d="M7.98023 203.49C6.27023 203.49 4.56024 202.92 3.42001 201.21C1.71001 198.93 1.71001 195.51 3.98979 193.23L4.55957 192.66C7.40979 189.81 10.2593 187.53 12.5398 185.82C16.5296 182.97 19.9496 180.12 23.3696 173.85C25.6493 169.86 25.6493 168.72 24.5098 164.73C23.3696 160.741 22.23 155.611 22.7998 146.49C23.3696 137.94 23.3696 135.66 22.7998 133.38C22.23 130.53 22.23 127.68 22.7998 116.85C23.3696 107.16 21.6596 106.02 18.2396 103.17C15.9598 101.46 15.3893 97.47 17.0993 95.1895C18.8093 92.9091 22.7991 92.3393 25.0796 94.0493C31.9196 99.1793 34.7698 103.74 34.1993 117.42C33.6296 127.11 33.6296 129.39 34.1993 131.669C34.7691 134.52 34.7691 137.369 34.1993 147.059C33.6296 154.469 34.7691 158.46 35.3396 161.88C37.0496 167.579 37.6193 171.57 33.0598 178.98C28.4996 187.53 23.94 190.95 19.3798 194.37C17.1 196.08 14.8196 197.79 12.5398 200.069C11.97 200.639 11.97 200.639 11.3996 201.21C10.8298 202.92 9.11979 203.49 7.98023 203.49Z" fill="black"/>
<path d="M174.42 265.62L165.3 258.78C193.8 222.3 220.02 178.98 241.68 128.82L251.94 133.38C230.28 184.11 204.06 228.57 174.42 265.62Z" fill="black"/>
<path d="M271.32 87.21L260.49 83.2202C269.61 59.85 273.6 44.46 273.6 43.8902L285 47.3102C284.43 47.88 280.44 63.27 271.32 87.21Z" fill="black"/>
<path d="M313.5 256.5C228 256.5 146.49 198.36 92.9098 149.91L100.32 141.36C152.76 188.67 231.42 245.1 313.5 245.1V256.5V256.5Z" fill="black"/>
<path d="M60.4198 117.99C41.04 98.0398 30.2095 83.79 29.6398 83.2202L38.7595 76.3802C38.7595 76.3802 50.1598 90.63 68.9698 110.01L60.4198 117.99Z" fill="black"/>
<path d="M79.8002 159.6C63.8405 159.6 51.3 147.06 51.3 131.1C51.3 115.139 63.8398 102.6 79.8002 102.6C95.7607 102.6 108.3 115.14 108.3 131.1C108.3 147.061 95.76 159.6 79.8002 159.6ZM79.8002 114C70.11 114 62.7002 121.41 62.7002 131.1C62.7002 140.79 70.11 148.2 79.8002 148.2C89.4905 148.2 96.9002 140.79 96.9002 131.1C96.9002 121.41 89.4898 114 79.8002 114Z" fill="black"/>
<path d="M256.5 136.8C240.54 136.8 228 124.26 228 108.3C228 92.3393 240.54 79.7996 256.5 79.7996C272.46 79.7996 285 92.3393 285 108.3C285 124.26 272.46 136.8 256.5 136.8ZM256.5 91.1998C246.81 91.1998 239.4 98.6096 239.4 108.3C239.4 117.99 246.81 125.4 256.5 125.4C266.19 125.4 273.6 117.99 273.6 108.3C273.6 98.6102 266.19 91.1998 256.5 91.1998Z" fill="black"/>
<path d="M153.9 307.8C137.94 307.8 125.4 295.26 125.4 279.3C125.4 263.34 137.94 250.8 153.9 250.8C169.86 250.8 182.4 263.339 182.4 279.3C182.4 295.26 169.86 307.8 153.9 307.8ZM153.9 262.2C144.21 262.2 136.8 269.61 136.8 279.3C136.8 288.99 144.21 296.4 153.9 296.4C163.59 296.4 171 288.99 171 279.3C171 269.61 163.59 262.2 153.9 262.2Z" fill="black"/>
<path d="M111.72 329.46L104.88 320.34C115.71 311.79 125.97 302.671 136.23 292.411L144.21 300.391C133.95 311.22 122.55 320.91 111.72 329.46Z" fill="black"/>
<g clip-path="url(#clip0)">
<path d="M415.078 146.832H398.489C374.524 146.832 351.979 137 334.963 120.127C333.687 118.709 331.843 118 330 118C328.157 118 326.313 118.709 325.037 120.127C308.021 137 285.476 146.832 261.511 146.832H244.922C240.95 146.832 237.832 149.95 237.832 153.922V239C237.832 302.666 284.2 332.35 314.827 351.634C318.798 354.186 322.626 356.455 326.029 358.865C327.306 359.574 328.582 360 330 360C331.418 360 332.694 359.574 333.971 358.865C337.232 356.597 340.919 354.328 344.889 351.775C375.657 332.492 422.168 302.809 422.168 239V153.922C422.168 149.95 419.05 146.832 415.078 146.832V146.832Z" fill="#40DAD1"/>
<path d="M422.168 153.922V239C422.168 302.809 375.657 332.492 344.889 351.775C340.919 354.328 337.232 356.597 333.971 358.865C332.694 359.574 331.418 360 330 360V118C331.843 118 333.687 118.709 334.963 120.127C351.979 137 374.524 146.832 398.489 146.832H415.078C419.05 146.832 422.168 149.95 422.168 153.922Z" fill="#81897D"/>
<path d="M330 175.191C294.835 175.191 266.191 203.833 266.191 239C266.191 274.165 294.835 302.809 330 302.809C365.165 302.809 393.809 274.165 393.809 239C393.809 203.833 365.165 175.191 330 175.191Z" fill="#DEECF1"/>
<path d="M393.809 239C393.809 274.165 365.165 302.809 330 302.809V175.191C365.165 175.191 393.809 203.833 393.809 239Z" fill="#C6E2E7"/>
<path d="M349.149 261.848C346.085 261.848 347.612 254.709 347.612 253.681C347.872 253.173 345.319 222.795 345.319 222.795C345.579 221.766 346.085 220.49 347.872 220.49H348.38C352.47 220.49 356.04 217.171 356.04 213.091C356.04 209.001 352.72 205.679 348.38 205.679C344.303 205.679 340.721 209.001 340.721 213.091C340.721 213.857 340.721 214.615 340.981 215.384C340.981 215.384 342.505 219.213 339.194 218.705C339.194 218.705 310.343 228.657 309.067 228.918C305.485 235.301 296.301 231.981 293.488 229.934C292.721 228.918 291.195 228.149 289.41 228.149C286.315 228.171 283.811 230.671 283.783 233.766C284.043 236.577 286.596 239.13 289.66 239.13C290.689 239.13 291.966 238.87 292.724 238.364C297.32 236.066 305.748 237.593 306.766 241.683V241.944C307.022 242.699 312.894 254.449 313.663 255.465C317.492 262.617 308.035 265.43 308.035 265.43C305.482 265.43 303.189 267.723 303.189 270.536C303.189 273.598 305.743 276.151 308.806 276.151C311.865 276.151 314.418 273.598 314.418 270.534C315.187 264.662 318.248 260.832 323.875 260.572C324.631 260.832 338.425 259.816 339.441 259.555C343.532 260.321 341.229 263.646 341.229 269.257C341.229 273.337 344.548 276.662 348.888 276.662C352.976 276.662 356.548 273.337 356.548 269.257C356.805 265.172 353.484 261.848 349.146 261.848H349.149Z" fill="#2E7D32"/>
<path d="M366.005 224.322C363.699 224.322 361.914 225.348 361.146 227.381C358.853 230.702 353.997 231.471 350.933 229.934C350.425 228.657 318.253 219.981 318.253 220.242C314.173 222.535 310.343 215.383 310.594 212.062V211.814C310.851 211.046 310.851 210.277 310.851 209.509C310.851 205.431 307.532 202.11 303.192 202.11C299.102 202.11 295.532 205.429 295.532 209.509C295.532 212.83 297.825 215.383 300.378 216.66C304.729 218.447 310.591 223.553 310.083 227.133C311.87 230.194 307.79 246.021 308.04 247.298C305.745 249.603 301.147 249.085 299.362 248.327C298.596 247.298 297.069 246.79 295.532 246.79C291.442 246.79 287.873 250.109 287.873 254.189C287.873 258.279 291.192 261.6 295.532 261.6C298.086 261.6 300.128 260.572 301.655 258.537C303.96 255.218 307.79 252.154 311.112 252.154C311.62 252.912 352.718 236.835 352.718 236.577C352.978 235.04 359.101 233.513 364.468 234.79H366.005C369.066 234.79 371.619 232.237 371.619 229.178C371.619 226.104 369.066 224.319 366.002 224.319L366.005 224.322Z" fill="#4CAF50"/>
<path d="M352.978 239.13C352.978 251.817 342.687 262.109 330 262.109C317.313 262.109 307.022 251.817 307.022 239.13C307.022 226.444 317.313 216.152 330 216.152C342.687 216.152 352.978 226.444 352.978 239.13Z" fill="#4CAF50"/>
<path d="M335.872 260.832C336.643 259.295 333.83 258.789 331.537 258.789C329.231 258.789 326.939 260.066 327.447 261.598C333.569 270.784 328.984 272.061 326.17 273.858C323.877 274.874 322.34 277.688 322.34 280.241C322.34 284.318 325.66 287.64 330 287.64C334.34 287.64 337.66 284.321 337.66 280.241C337.92 273.09 333.319 263.125 335.872 260.832ZM368.037 246.529C366.512 246.529 364.975 246.79 363.959 247.558C359.361 249.343 355.271 246.021 352.21 243.976C350.686 242.96 348.891 245.513 348.38 246.282C347.872 247.048 347.104 250.619 350.167 250.619C355.274 248.832 361.657 257.768 361.657 257.768C362.683 260.321 365.486 261.848 368.558 261.848C372.635 261.848 376.217 258.539 376.217 254.449C375.449 249.853 372.127 246.529 368.037 246.529ZM323.357 202.11C328.215 212.062 327.955 215.891 325.154 216.918C322.849 218.705 326.678 220.998 329.492 220.492C332.293 219.981 334.846 218.705 333.061 216.152C328.723 208.492 334.338 203.386 334.338 203.386C336.125 202.37 337.402 200.067 337.402 197.769C337.402 193.684 334.09 190.36 329.742 190.36C325.402 190.36 322.083 193.682 322.083 197.772C322.083 198.788 322.34 200.064 322.849 201.091C322.849 201.849 322.849 201.849 323.359 202.11H323.357Z" fill="#8BC34A"/>
<path d="M325.91 239.13C321.833 239.13 318.25 235.811 318.25 231.731C318.25 227.641 321.572 224.319 325.91 224.319C330.26 224.319 333.569 227.641 333.569 231.731C333.569 235.809 330.26 239.13 325.91 239.13Z" fill="#C5E1A5"/>
<path d="M322.08 250.359C319.787 250.359 318.25 248.835 318.25 246.529C318.25 244.236 319.787 242.699 322.08 242.699C324.386 242.699 325.91 244.236 325.91 246.529C325.91 248.835 324.386 250.359 322.08 250.359Z" fill="#F1F8E9"/>
<path d="M335.617 254.449C332.553 254.449 330 251.896 330 248.832C330 245.773 332.553 243.22 335.617 243.22C338.676 243.22 341.229 245.773 341.229 248.835C341.229 251.896 338.676 254.449 335.614 254.449H335.617Z" fill="#DCEDC8"/>
<rect x="288" y="201.879" width="7" height="109.698" rx="3.5" transform="rotate(-44.1866 288 201.879)" fill="#D23A3A"/>
<rect x="365.133" y="197" width="7" height="109.698" rx="3.5" transform="rotate(43.2282 365.133 197)" fill="#D23A3A"/>
</g>
<defs>
<clipPath id="clip0">
<rect x="209" y="118" width="242" height="242" fill="white"/>
</clipPath>
</defs>
</svg>
