<svg width="584" height="445" viewBox="0 0 584 445" fill="none" xmlns="http://www.w3.org/2000/svg">
<path d="M543.704 2.7297C562.767 8.73515 576.734 23.4872 581.568 42.2884C583.394 49.3403 583.524 66.1794 583.263 189.166L582.87 327.952L579.344 340.486C564.723 394.018 521.9 433.576 468.761 442.846C452.439 445.718 310.389 445.718 289.763 442.846C247.855 436.971 209.86 417.385 187.926 390.23L183.353 384.748L174.214 386.704C160.764 389.576 138.181 390.622 124.862 388.791C65.7177 380.823 16.7584 339.439 3.57019 286.038C-0.348218 270.109 -0.348206 246.218 3.70101 231.335C16.6335 182.768 57.6311 148.436 112.203 140.469C118.994 139.553 129.304 139.161 139.49 139.684C192.629 142.169 240.018 171.804 262.084 216.322C265.479 223.112 268.351 228.987 268.482 229.117C268.613 229.379 273.179 228.725 278.792 227.554C322.923 218.415 371.49 224.943 409.741 245.178C416.4 248.834 422.013 251.575 422.275 251.314C422.667 250.791 471.234 143.602 472.15 141.123C472.673 139.684 471.104 139.291 463.927 139.291C451.393 139.291 439.12 137.073 431.028 133.417C422.543 129.498 411.441 119.057 406.875 110.959C401.131 100.125 390.422 71.9232 389.12 63.6999C384.94 37.7159 401.393 11.3455 426.461 3.50863C434.423 1.02916 438.472 0.898332 486.777 1.02914C524.641 1.03509 539.916 1.5524 543.704 2.7297ZM443.823 70.0978V84.4574H472.548H501.273V70.0978V55.7382H472.548H443.823V70.0978Z" fill="#70DA40"/>
</svg>
