<?xml version="1.0" encoding="iso-8859-1"?>
<!-- Generator: Adobe Illustrator 19.0.0, SVG Export Plug-In . SVG Version: 6.00 Build 0)  -->
<svg xmlns="http://www.w3.org/2000/svg" xmlns:xlink="http://www.w3.org/1999/xlink" version="1.1" id="Layer_1" x="0px" y="0px" viewBox="0 0 454.478 454.478" style="enable-background:new 0 0 454.478 454.478;" xml:space="preserve" width="512" height="512">
<g>
	<path style="fill:#E6E6E6;" d="M290.982,319.438c0-4.42-0.65-8.68-1.86-12.7c-2.45-8.2-7.22-15.4-13.56-20.84l4.6-40.16l2.97-26   h86.21l2.98,26l13.16,115h-94.5V319.438z"/>
	<polygon style="fill:#CCCCCC;" points="372.322,245.738 369.342,219.738 283.132,219.738 280.162,245.738 280.733,245.738    264.576,358.841 293.909,359.508 305.611,245.738  "/>
	<rect x="7.5" y="360.732" style="fill:#0FBC30;" width="439.478" height="25.499"/>
	<path style="fill:#E6E6E6;" d="M290.982,319.438v14.3h-133.57v-14.3c0-4.42-0.65-8.68-1.86-12.7h133.57   C290.332,310.758,290.982,315.018,290.982,319.438z"/>
	<path style="fill:#CCCCCC;" d="M157.412,333.738v26.99h-44.21h-44.21v-41.29c0-24.41,19.8-44.2,44.21-44.2   c19.99,0,36.9,13.28,42.35,31.5c1.21,4.02,1.86,8.28,1.86,12.7V333.738z"/>
	<rect x="157.412" y="333.738" style="fill:#ED2E2E;" width="133.57" height="26.99"/>
	<path style="fill:#ED2E2E;" d="M289.122,306.738h-133.57c-5.45-18.22-22.36-31.5-42.35-31.5h133.58c10.99,0,21.06,4.02,28.78,10.66   C281.902,291.338,286.672,298.538,289.122,306.738z"/>
	<polygon style="fill:#ED2E2E;" points="392.322,170.238 383.982,219.738 369.342,219.738 283.132,219.738 268.482,219.738    260.142,170.238  "/>
	<polygon style="fill:#D82525;" points="260.142,170.238 268.482,219.738 283.132,219.738 300.149,219.738 291.809,170.238  "/>
	<path style="fill:#3B9DFF;" d="M208.492,68.248c8.49,0,15.37,6.88,15.37,15.37c0,4.25-1.72,8.09-4.5,10.87   c-2.78,2.79-6.62,4.51-10.87,4.51h-57.99c8.49,0,15.37,6.88,15.37,15.37c0,4.24-1.72,8.09-4.5,10.87   c-2.78,2.79-6.63,4.51-10.87,4.51h-53.01c-8.49,0-15.37-6.89-15.37-15.38c0-4.24,1.72-8.09,4.5-10.87c2.78-2.78,6.62-4.5,10.87-4.5   h22.26c-8.49,0-15.38-6.89-15.38-15.38c0-4.25,1.72-8.09,4.51-10.87c2.78-2.78,6.62-4.5,10.87-4.5H208.492z"/>
	<g>
		<path style="fill:#333333;" d="M7.5,368.232h439.478c4.142,0,7.5-3.358,7.5-7.5s-3.358-7.5-7.5-7.5h-54.807L377.75,227.239h6.231    c3.661,0,6.787-2.643,7.396-6.253l8.344-49.498c0.367-2.176-0.243-4.404-1.668-6.089c-1.425-1.685-3.52-2.657-5.727-2.657h-58.591    v-49.497c0-4.142-3.358-7.5-7.5-7.5s-7.5,3.358-7.5,7.5v49.497h-58.591c-2.207,0-4.302,0.972-5.727,2.657    c-1.425,1.685-2.036,3.913-1.668,6.089l8.344,49.498c0.608,3.61,3.734,6.253,7.396,6.253h6.238l-5.236,45.763    c-6.859-3.368-14.565-5.266-22.707-5.266H113.202c-28.51,0-51.705,23.195-51.705,51.705v33.791H7.5c-4.142,0-7.5,3.358-7.5,7.5    S3.358,368.232,7.5,368.232z M283.486,319.442v6.794H164.907v-6.794c0-1.757-0.09-3.494-0.262-5.206H283.11    C283.353,315.937,283.486,317.674,283.486,319.442z M164.907,353.232v-11.997h118.579v11.997H164.907z M383.455,177.742    l-5.815,34.498h-8.214c-0.028,0-0.055-0.004-0.084-0.004h-86.21c-0.028,0-0.055,0.004-0.084,0.004h-8.22l-5.815-34.498H383.455z     M362.652,227.239l14.422,125.993h-78.588v-33.791c0-14.195-5.753-27.071-15.046-36.424l6.383-55.779H362.652z M246.781,282.736    c12.778,0,24.046,6.567,30.622,16.499h-116.61c-2.649-6.216-6.484-11.809-11.216-16.499H246.781z M76.497,319.442    c0-20.24,16.466-36.705,36.705-36.705s36.705,16.466,36.705,36.705v33.791h-7.036v-11.167c0-4.142-3.358-7.5-7.5-7.5    s-7.5,3.358-7.5,7.5v11.167H76.497V319.442z"/>
		<path style="fill:#333333;" d="M446.978,378.731H7.5c-4.142,0-7.5,3.358-7.5,7.5s3.358,7.5,7.5,7.5h439.478    c4.142,0,7.5-3.358,7.5-7.5S451.12,378.731,446.978,378.731z"/>
		<path style="fill:#333333;" d="M97.496,137.244h53.003c12.613,0,22.874-10.261,22.874-22.874c0-2.765-0.494-5.418-1.396-7.874    h36.514c12.613,0,22.875-10.261,22.875-22.874c0-12.613-10.262-22.874-22.875-22.874h-88.74    c-12.613,0-22.875,10.261-22.875,22.874c0,2.765,0.494,5.418,1.396,7.874h-0.776c-12.613,0-22.875,10.261-22.875,22.874    S84.883,137.244,97.496,137.244z M97.496,106.495h22.254c4.142,0,7.5-3.358,7.5-7.5s-3.358-7.5-7.5-7.5    c-4.342,0-7.875-3.532-7.875-7.874s3.533-7.874,7.875-7.874h88.74c4.342,0,7.875,3.532,7.875,7.874s-3.533,7.874-7.875,7.874    h-57.991c-4.142,0-7.5,3.358-7.5,7.5s3.358,7.5,7.5,7.5c4.342,0,7.874,3.532,7.874,7.874s-3.532,7.874-7.874,7.874H97.496    c-4.342,0-7.875-3.532-7.875-7.874S93.154,106.495,97.496,106.495z"/>
		<path style="fill:#333333;" d="M326.234,264.737c4.142,0,7.5-3.358,7.5-7.5v-9c0-4.142-3.358-7.5-7.5-7.5s-7.5,3.358-7.5,7.5v9    C318.734,261.38,322.092,264.737,326.234,264.737z"/>
		<path style="fill:#333333;" d="M326.234,300.736c4.142,0,7.5-3.358,7.5-7.5v-9c0-4.142-3.358-7.5-7.5-7.5s-7.5,3.358-7.5,7.5v9    C318.734,297.378,322.092,300.736,326.234,300.736z"/>
		<path style="fill:#333333;" d="M291.736,202.491h68.997c4.142,0,7.5-3.358,7.5-7.5s-3.358-7.5-7.5-7.5h-68.997    c-4.142,0-7.5,3.358-7.5,7.5S287.594,202.491,291.736,202.491z"/>
	</g>
</g>















</svg>
